# xmcd
#
# Track frame offsets:
#	183
#	13590
#	24850
#	37495
#	49645
#	62718
#	74870
#	88678
#	100670
#	114235
#	125878
#	138398
#	151735
#	165265
#	177778
#	189905
#	202233
#	212465
#	225930
#	239335
#	249458
#	261858
#
# Disc length: 3675 seconds
#
# Revision: 1
# Processed by: cddbd v1.5.1PL0 Copyright (c) Steve Scherf et al.
# Submitted via: audiograbber 1.83.01
#
DISCID=2a0e5916
DTITLE=Anisio Silva - Grandes Sucessos
DYEAR=1900
DGENRE=Latin
TTITLE0=Alguém Me Disse
TTITLE1=Sonhando Contigo
TTITLE2=Interesseira
TTITLE3=Vida, Vida
TTITLE4=Onde Estás Agora
TTITLE5=Quero Beijar-te as Mãos
TTITLE6=Devolva-me
TTITLE7=Não Digo o Nome
TTITLE8=Estou Pensando em Ti
TTITLE9=Onde Estarás
TTITLE10=Tudo Foi Ilusão
TTITLE11=Tu Somente Tu
TTITLE12=Beija-me Depois
TTITLE13=Abismo
TTITLE14=Pressentimento
TTITLE15=Abraça-me
TTITLE16=Não É Por Mim
TTITLE17=Sempre em Meu Pensamento
TTITLE18=Me Leva
TTITLE19=Sempre Comigo
TTITLE20=Se a Vida Parasse
TTITLE21=Ave Maria dos Namorados
EXTD=
EXTT0=
EXTT1=
EXTT2=
EXTT3=
EXTT4=
EXTT5=
EXTT6=
EXTT7=
EXTT8=
EXTT9=
EXTT10=
EXTT11=
EXTT12=
EXTT13=
EXTT14=
EXTT15=
EXTT16=
EXTT17=
EXTT18=
EXTT19=
EXTT20=
EXTT21=
PLAYORDER=
